<svg width="84" height="34" viewBox="0 0 84 34" fill="none" xmlns="http://www.w3.org/2000/svg">
    <rect width="34" height="34" rx="17" fill="url(#paint0_linear_660_3148)"/>
    <g clip-path="url(#clip0_660_3148)">
        <path d="M16.9235 7.51344C13.4527 8.49022 11.8844 10.0841 10.9588 12.9377C10.0332 15.7914 11.6526 20.5218 15.4574 21.756C19.2623 22.9902 23.0415 21.0622 23.9672 18.2086C24.8928 15.355 24.0831 12.9897 21.7051 12.2183C19.327 11.447 16.3319 12.578 15.0977 16.3829C13.8636 20.1877 14.8368 25.1375 16.7683 27.4377"
              stroke="white" stroke-width="2" stroke-linecap="round" stroke-linejoin="round"/>
    </g>
    <path d="M45.4489 13.598V15.5866H39V13.598H45.4489ZM40.6122 24.5071V12.5682C40.6122 11.8343 40.7637 11.2235 41.0668 10.7358C41.3745 10.2481 41.7865 9.88351 42.3026 9.64203C42.8187 9.40055 43.3916 9.27982 44.0213 9.27982C44.4664 9.27982 44.8617 9.31533 45.2074 9.38635C45.553 9.45737 45.8087 9.52129 45.9744 9.57811L45.4631 11.5667C45.3542 11.5336 45.2169 11.5005 45.0511 11.4673C44.8854 11.4294 44.7008 11.4105 44.4972 11.4105C44.0189 11.4105 43.6804 11.5265 43.4815 11.7585C43.2874 11.9858 43.1903 12.3125 43.1903 12.7386V24.5071H40.6122Z"
          fill="#3E4348"/>
    <path d="M49.2334 9.96163V24.5071H46.6624V9.96163H49.2334Z" fill="#3E4348"/>
    <path d="M55.8357 24.7202C54.7704 24.7202 53.8471 24.4858 53.0658 24.017C52.2846 23.5483 51.6785 22.8925 51.2477 22.0497C50.8215 21.2069 50.6085 20.2221 50.6085 19.0952C50.6085 17.9683 50.8215 16.981 51.2477 16.1335C51.6785 15.286 52.2846 14.6278 53.0658 14.1591C53.8471 13.6903 54.7704 13.456 55.8357 13.456C56.9011 13.456 57.8244 13.6903 58.6056 14.1591C59.3869 14.6278 59.9906 15.286 60.4167 16.1335C60.8476 16.981 61.063 17.9683 61.063 19.0952C61.063 20.2221 60.8476 21.2069 60.4167 22.0497C59.9906 22.8925 59.3869 23.5483 58.6056 24.017C57.8244 24.4858 56.9011 24.7202 55.8357 24.7202ZM55.8499 22.6605C56.4276 22.6605 56.9105 22.5019 57.2988 22.1846C57.687 21.8627 57.9759 21.4318 58.1653 20.892C58.3594 20.3523 58.4565 19.7509 58.4565 19.0881C58.4565 18.4204 58.3594 17.8167 58.1653 17.277C57.9759 16.7325 57.687 16.2992 57.2988 15.9773C56.9105 15.6553 56.4276 15.4943 55.8499 15.4943C55.2581 15.4943 54.7656 15.6553 54.3727 15.9773C53.9844 16.2992 53.6932 16.7325 53.4991 17.277C53.3097 17.8167 53.215 18.4204 53.215 19.0881C53.215 19.7509 53.3097 20.3523 53.4991 20.892C53.6932 21.4318 53.9844 21.8627 54.3727 22.1846C54.7656 22.5019 55.2581 22.6605 55.8499 22.6605Z"
          fill="#3E4348"/>
    <path d="M64.3841 24.5071L61.3017 13.598H63.9224L65.8401 21.2685H65.9395L67.8997 13.598H70.492L72.4523 21.2258H72.5588L74.448 13.598H77.0759L73.9864 24.5071H71.3088L69.2634 17.1349H69.1142L67.0688 24.5071H64.3841Z"
          fill="#3E4348"/>
    <path d="M83.5184 13.598V15.5866H77.2471V13.598H83.5184ZM78.7954 10.9844H81.3664V21.2258C81.3664 21.5715 81.4185 21.8366 81.5227 22.0213C81.6316 22.2012 81.7736 22.3243 81.9488 22.3906C82.124 22.4569 82.3181 22.49 82.5312 22.49C82.6922 22.49 82.8389 22.4782 82.9715 22.4545C83.1088 22.4309 83.213 22.4096 83.284 22.3906L83.7173 24.4006C83.5799 24.4479 83.3834 24.5 83.1278 24.5568C82.8768 24.6136 82.5691 24.6468 82.2045 24.6562C81.5605 24.6752 80.9805 24.5781 80.4644 24.365C79.9483 24.1472 79.5388 23.8111 79.2357 23.3565C78.9374 22.902 78.7906 22.3338 78.7954 21.652V10.9844Z"
          fill="#3E4348"/>
    <defs>
        <linearGradient id="paint0_linear_660_3148" x1="8" y1="-3.5" x2="17" y2="71.5" gradientUnits="userSpaceOnUse">
            <stop stop-color="#5D51E9"/>
            <stop offset="1" stop-color="#D451E9"/>
        </linearGradient>
        <clipPath id="clip0_660_3148">
            <rect width="24" height="24" fill="white" transform="translate(32.1172 9.28802) rotate(107.972)"/>
        </clipPath>
    </defs>
</svg>
